<?xml version="1.0" standalone="no"?><!DOCTYPE svg PUBLIC "-//W3C//DTD SVG 1.1//EN" "http://www.w3.org/Graphics/SVG/1.1/DTD/svg11.dtd"><svg t="1649937283527" class="icon" viewBox="0 0 1024 1024" version="1.1" xmlns="http://www.w3.org/2000/svg" p-id="34637" xmlns:xlink="http://www.w3.org/1999/xlink" width="200" height="200"><defs><style type="text/css">@font-face { font-family: feedback-iconfont; src: url("//at.alicdn.com/t/font_1031158_u69w8yhxdu.woff2?t=1630033759944") format("woff2"), url("//at.alicdn.com/t/font_1031158_u69w8yhxdu.woff?t=1630033759944") format("woff"), url("//at.alicdn.com/t/font_1031158_u69w8yhxdu.ttf?t=1630033759944") format("truetype"); }
</style></defs><path d="M512 1024a512 512 0 1 1 512-512 512 512 0 0 1-512 512z m0-992a480 480 0 1 0 480 480A480 480 0 0 0 512 32z m128 640a80 80 0 1 1 48-143.632V416l-224 64v192h-1.6a80.544 80.544 0 1 1-30.4-79.632V384a32 32 0 0 1 32-32l224-64a32 32 0 0 1 32 32v288h-1.6a80 80 0 0 1-78.4 64z m-256-64a48 48 0 1 0 48 48 48 48 0 0 0-48-48z m304-288l-224 64v64l224-64v-64z m-48 224a48 48 0 1 0 48 48 48 48 0 0 0-48-48z" p-id="34638"></path></svg>