<?xml version="1.0" standalone="no"?><!DOCTYPE svg PUBLIC "-//W3C//DTD SVG 1.1//EN" "http://www.w3.org/Graphics/SVG/1.1/DTD/svg11.dtd"><svg t="1649904272736" class="icon" viewBox="0 0 1365 1024" version="1.1" xmlns="http://www.w3.org/2000/svg" p-id="21107" xmlns:xlink="http://www.w3.org/1999/xlink" width="266.6015625" height="200"><defs><style type="text/css">@font-face { font-family: feedback-iconfont; src: url("//at.alicdn.com/t/font_1031158_u69w8yhxdu.woff2?t=1630033759944") format("woff2"), url("//at.alicdn.com/t/font_1031158_u69w8yhxdu.woff?t=1630033759944") format("woff"), url("//at.alicdn.com/t/font_1031158_u69w8yhxdu.ttf?t=1630033759944") format("truetype"); }
</style></defs><path d="M1236.4080406 442.12695338l-164.79492238-263.67187551A131.83593775 131.83593775 0 0 0 959.88216119 116.4921875H333.66145857a131.83593775 131.83593775 0 0 0-131.83593775 131.83593775v527.3437495a131.83593775 131.83593775 0 0 0 131.83593775 131.83593775h626.22070262a131.83593775 131.83593775 0 0 0 111.73095703-61.96289037l164.79492238-263.67187551a131.83593775 131.83593775 0 0 0 0-139.74609324z m-56.03027394 104.80957031l-164.79492162 263.67187475A65.9179685 65.9179685 0 0 1 959.88216119 841.589844H333.66145857a65.9179685 65.9179685 0 0 1-65.91796925-65.91796925V248.32812525a65.9179685 65.9179685 0 0 1 65.91796925-65.91796925h626.22070262a65.9179685 65.9179685 0 0 1 56.03027395 30.98144556l164.79492162 263.67187475a65.9179685 65.9179685 0 0 1 0 69.87304738z" fill="#343231" p-id="21108"></path><path d="M959.88216119 413.12304687a98.87695313 98.87695313 0 1 0 98.87695313 98.87695313 98.87695313 98.87695313 0 0 0-98.87695313-98.87695313z m0 164.79492163a65.9179685 65.9179685 0 1 1 65.91796926-65.9179685 65.9179685 65.9179685 0 0 1-65.91796926 65.9179685z" fill="#343231" p-id="21109"></path></svg>